inDegrees=no
num_controls=7
num_derivatives=13
num_iterations=162
num_multipliers=7
num_parameters=0
num_slacks=7
num_states=26
objective=5.436498
objective_accelerations=0.367768
objective_balance=0.046361
objective_effort=0.363540
objective_height=4.562572
objective_ligament=0.096257
solver_duration=1598.527240
status=Solve_Succeeded
success=true
DataType=double
version=3
OpenSimVersion=4.4-2022-07-23-0e9fedc
endheader
time	/jointset/ground_pelvis/pelvis_tilt/value	/jointset/ground_pelvis/pelvis_tx/value	/jointset/ground_pelvis/pelvis_ty/value	/jointset/hip_l/hip_flexion_l/value	/jointset/hip_l/hip_adduction_l/value	/jointset/hip_l/hip_rotation_l/value	/jointset/back/lumbar_extension/value	/jointset/patellofemoral_l/patellar_flexion_l/value	/jointset/knee_l/knee_flexion_l/value	/jointset/knee_l/knee_adduction_l/value	/jointset/knee_l/knee_rotation_l/value	/jointset/ankle_l/ankle_angle_l/value	/jointset/subtalar_l/subtalar_angle_l/value	/jointset/ground_pelvis/pelvis_tilt/speed	/jointset/ground_pelvis/pelvis_tx/speed	/jointset/ground_pelvis/pelvis_ty/speed	/jointset/hip_l/hip_flexion_l/speed	/jointset/hip_l/hip_adduction_l/speed	/jointset/hip_l/hip_rotation_l/speed	/jointset/back/lumbar_extension/speed	/jointset/patellofemoral_l/patellar_flexion_l/speed	/jointset/knee_l/knee_flexion_l/speed	/jointset/knee_l/knee_adduction_l/speed	/jointset/knee_l/knee_rotation_l/speed	/jointset/ankle_l/ankle_angle_l/speed	/jointset/subtalar_l/subtalar_angle_l/speed	/forceset/tau_hip_flexion_l	/forceset/tau_hip_adduction_l	/forceset/tau_hip_rotation_l	/forceset/tau_knee_flexion_l	/forceset/tau_ankle_angle_l	/forceset/tau_subtalar_angle_l	/forceset/tau_lumbar_extension	lambda_cid13_p0	lambda_cid13_p1	lambda_cid13_p2	lambda_cid13_p3	lambda_cid13_p4	lambda_cid13_p5	lambda_cid14_p0	/jointset/ground_pelvis/pelvis_tilt/accel	/jointset/ground_pelvis/pelvis_tx/accel	/jointset/ground_pelvis/pelvis_ty/accel	/jointset/hip_l/hip_flexion_l/accel	/jointset/hip_l/hip_adduction_l/accel	/jointset/hip_l/hip_rotation_l/accel	/jointset/back/lumbar_extension/accel	/jointset/patellofemoral_l/patellar_flexion_l/accel	/jointset/knee_l/knee_flexion_l/accel	/jointset/knee_l/knee_adduction_l/accel	/jointset/knee_l/knee_rotation_l/accel	/jointset/ankle_l/ankle_angle_l/accel	/jointset/subtalar_l/subtalar_angle_l/accel	gamma_cid13_p0	gamma_cid13_p1	gamma_cid13_p2	gamma_cid13_p3	gamma_cid13_p4	gamma_cid13_p5	gamma_cid14_p0
1	0.06318215871866428	0.01003133042335681	0.7685090213424882	0.8743766609202651	-0.3415508516722331	0.009800106161256879	-0.9599310885968813	1.224710355914618	1.22471035591461	-0.08435453184263995	-0.174532756395865	0.3759432783133201	0.09261590100208068	0.120560411562925	0.03185519155790958	0.05859062030217112	-0.3076035381648307	-0.001668444862824518	-0.06751226764486935	-0.003491797389035308	-0.1627333388204122	-0.162733338820391	0.001158464159549764	-4.713755253965106e-07	0.01493405004444637	0.006433334906159127	-0.2504062816020952	0.05288830488705392	-0.003821426730012923	-0.3601751343050549	-0.06154273539417534	0.03414521200833592	0.3601497646962189	-68.35159040719157	-3.213287941170062	0.4599222867739984	17.56499621973997	-775.6558327901105	-72.96776372073779	-0.698140618314299	0.1795674658897729	-0.07024005330134728	1.065291431114886	-3.083042698592151	0.100454794419571	-1.410907265420305	0.6719346444954623	-4.322008453571808	-4.322008453571836	-0.191904853696728	-0.01066180255276119	-1.726702872577599	-0.6971183237238966	-9.57642417824828e-09	1.649971099936498e-08	4.067243306496611e-08	8.598232747866469e-09	-2.296981446462661e-08	6.252667596039262e-08	-9.695971894973368e-09
1.01	0.06439617418354202	0.01034651888891556	0.7691479749593553	0.8711474434203927	-0.3415620440708375	0.009054027596217453	-0.9599310842793497	1.222867502239415	1.2228675022394	-0.08435125299456359	-0.1745327024009835	0.37600666505451	0.09264628411241718	0.1222194483834264	0.03119723545402256	0.06918904325971785	-0.338212339140629	-0.0005663269309133009	-0.08169414980315004	0.003583588770752132	-0.2058220497862592	-0.2058220497862482	-0.0005050700961378386	9.384351512804308e-06	-0.002243795224402982	-0.0003446093554885771	-0.2500268445998448	0.05303772360228457	-0.00387506191414776	-0.3596835518644728	-0.06179441356497237	0.03424385085311403	0.3602597140135405	-68.41115489472821	-3.268365260704081	0.4945954149277885	17.34444602957861	-775.6075189650844	-73.01352060373539	-0.7228654679819304	0.1555857821106763	-0.06136055305773419	1.055453133874791	-3.045657163427869	0.115641896364991	-1.420445610067981	0.7388676070154144	-4.299997791228081	-4.299997791229665	-0.153939524386916	0.006540114115806616	-1.711390447917602	-0.6663251815899548	-1.496219998582635e-08	7.853780028046023e-09	6.070958863318961e-08	1.370228513084098e-08	-2.806096210563494e-08	5.93219658992654e-08	-1.32729325225558e-08
1.02	0.06562608281502334	0.01065557036061014	0.769892579886958	0.8676129662374835	-0.3415621049693644	0.008166406825783427	-0.9598576169600402	1.220594222379928	1.220594222379904	-0.08436468185161812	-0.1745326036780741	0.3758986603242357	0.09260924923929573	0.1237390448831391	0.03062779278507672	0.07972088244928523	-0.3686554747705997	0.0005578551525230955	-0.09582070872287447	0.01120005514234864	-0.2488185756775855	-0.2488185756775853	-0.002183076867110901	8.474229898184241e-06	-0.01934424424841299	-0.007050261785326716	-0.2496474075976428	0.05318714231750367	-0.003928697098201861	-0.3591919694238992	-0.06204609173576779	0.03434248969787407	0.360369663330825	-68.48441776296876	-3.320400730002418	0.5280482318845497	17.17919467995641	-775.7402726415889	-73.05121463228146	-0.7539770387242046	0.1516794017319925	-0.05253736631308353	1.051974677519019	-3.049909629426635	0.1048676247245984	-1.399842617709061	0.7801506868575446	-4.303571438667689	-4.303571438667818	-0.1947993567538257	-0.01281497228333364	-1.711223623609692	-0.6826599573619752	-1.914471220415726e-08	-4.746609077566646e-09	7.94527181667983e-08	1.593105576195099e-08	-3.348520550499432e-08	4.850124522431228e-08	-1.625256308276821e-08
1.03	0.06687037393529296	0.01095947091425878	0.7707421575783752	0.8637748650197417	-0.3415508115477491	0.007137847355412155	-0.9597047036594217	1.217891405950213	1.217891405950197	-0.08439502018337826	-0.1745325355486859	0.3756201471439581	0.09250560082747321	0.1250842296217854	0.03017733260405935	0.0901823590042201	-0.3989395838966837	0.001704928038142135	-0.1098812656102728	0.01953101371849134	-0.2917329089048715	-0.2917329089048784	-0.003888665015384569	5.159370841205536e-06	-0.03633443583519089	-0.01365887322213022	-0.2495830801299461	0.05337188342186091	-0.004001015153347403	-0.3584098884811715	-0.06223454577301069	0.03449641736211062	0.3608964019257632	-68.52977020592353	-3.413938704817659	0.5825145729263725	16.82300399423426	-775.9363982019678	-73.11586437481972	-0.7918348842128331	0.1206944682819495	-0.03754450559374931	1.041381804533913	-3.013885901114258	0.1202327868313743	-1.40769180462037	0.8818297535507252	-4.283590197463481	-4.283590197464511	-0.1590592742059134	0.005931169332298173	-1.68932608135129	-0.6468882123142428	-2.331494622259789e-08	-1.738734979679457e-08	9.8182643353115e-08	1.813048678334808e-08	-3.891284784066342e-08	3.760281015534049e-08	-1.922609843821154e-08
1.04	0.06812706819462218	0.01125961803377749	0.7716959795673524	0.8596346778413503	-0.3415279262640065	0.005968976400089909	-0.9594640285109309	1.214759801001685	1.214759801001675	-0.08444253854268646	-0.1745324963854827	0.3751724502167851	0.09233648100618722	0.1262196726944688	0.02987710595908905	0.1005697419612928	-0.4290726668993711	0.002876227577794634	-0.1238830057122797	0.02875242471696218	-0.3345762794403364	-0.3345762794403496	-0.005619082377329009	2.680993750884297e-06	-0.05318099362754779	-0.02014454367792235	-0.249518752662288	0.05355662452620963	-0.004073333208406029	-0.3576278075384504	-0.06242299981025209	0.03465034502633353	0.3614231405206718	-68.58886231044043	-3.504510580511257	0.6358674637730765	16.51983204912721	-776.3152467456833	-73.17334613864155	-0.8368562897168653	0.1097310685393729	-0.02249065910364494	1.03715595794659	-3.019704404747307	0.1097129555312806	-1.388079260630808	0.9582411713231647	-4.289378900303459	-4.289378900303438	-0.1997651994879857	-0.01264767589001668	-1.682496864725467	-0.6580717611596957	-2.605891290047011e-08	-3.093907237028577e-08	1.144089891348704e-07	1.782411034111278e-08	-4.257794562778992e-08	2.407355924340409e-08	-2.174781947490783e-08
1.05	0.06939404379985462	0.01155748736387311	0.7727532385463307	0.8551940958868877	-0.3414932014352429	0.004660460739921683	-0.9591268530267727	1.211200228667357	1.211200228667329	-0.08450751980194544	-0.17453248581705	0.3745569676870305	0.09210312709714494	0.1271365192287721	0.02971918014700695	0.1108628526913068	-0.4589982653565293	0.004074975245834841	-0.1378075820327864	0.03881667512203252	-0.3773145437085066	-0.3773145437085105	-0.007377314034330738	-2.054453277466172e-07	-0.06989473355096151	-0.02650212528113269	-0.2490814567917206	0.05367461664185782	-0.004163184673405686	-0.3566200609231836	-0.06237717392223699	0.0348204917665542	0.3615325611192363	-68.53875218235173	-3.628401774305854	0.7027054053030186	16.173301751707	-776.1659829526467	-73.25005496837547	-0.8895277885229617	0.07682075553541574	-0.0090770451673154	1.022499185016934	-2.972171150397376	0.1258779599454369	-1.392788160547643	1.050617426166797	-4.262498756159507	-4.262498756158171	-0.1638867901729405	0.00596967799266746	-1.662699416555284	-0.6209925060670307	-2.875830872394958e-08	-4.45192631267227e-08	1.305570980602332e-07	1.743942741563898e-08	-4.618796389777447e-08	1.046209533637506e-08	-2.425542131414327e-08
1.06	0.07066901973236617	0.01185445073526631	0.7739128507435069	0.8504556212310176	-0.3414463046722956	0.003213071047988058	-0.9586850149483492	1.207213983977129	1.207213983977082	-0.08459009030604522	-0.1745324883518237	0.3737749703859611	0.09180691914283699	0.1278197381494584	0.02969591421860457	0.1210403856008707	-0.4886512071815821	0.005310614414076061	-0.1516578120647765	0.0496849435698206	-0.4199107506201056	-0.4199107506201001	-0.009136931345998469	6.035197118852247e-08	-0.08648394789061423	-0.03271535273095631	-0.2486441609211494	0.05379260875750398	-0.004253036138332894	-0.355612314307914	-0.06233134803422141	0.03499063850677089	0.3616419817178044	-68.50232182702121	-3.749422173379428	0.7685419805433753	15.87737195486036	-776.1992298625478	-73.32094023797818	-0.9503768286107348	0.06300554581598861	0.004441317632314827	1.014040393856564	-2.965173078326204	0.1170912555714757	-1.373210002927511	1.119044779866702	-4.260967428989216	-4.26096742898916	-0.2000423304211902	-0.01201722861451626	-1.657591747973248	-0.6292009304823489	-3.14944709654577e-08	-5.816221877423678e-08	1.437863343662738e-07	1.739980537239925e-08	-4.972940637987988e-08	-3.070203977383272e-09	-2.640066352497855e-08
